<?xml version="1.0" encoding="UTF-8" standalone="no"?>
<svg
   version="1.0"
   width="300.000000pt"
   height="300.000000pt"
   viewBox="0 0 300.000000 300.000000"
   preserveAspectRatio="xMidYMid meet"
   id="svg7"
   sodipodi:docname="logo.svg"
   inkscape:version="1.3 (0e150ed, 2023-07-21)"
   xmlns:inkscape="http://www.inkscape.org/namespaces/inkscape"
   xmlns:sodipodi="http://sodipodi.sourceforge.net/DTD/sodipodi-0.dtd"
   xmlns="http://www.w3.org/2000/svg"
   xmlns:svg="http://www.w3.org/2000/svg">
  <defs
     id="defs7" />
  <sodipodi:namedview
     id="namedview7"
     pagecolor="#ffffff"
     bordercolor="#000000"
     borderopacity="0.25"
     inkscape:showpageshadow="2"
     inkscape:pageopacity="0.0"
     inkscape:pagecheckerboard="0"
     inkscape:deskcolor="#d1d1d1"
     inkscape:document-units="pt"
     inkscape:zoom="0.59"
     inkscape:cx="200"
     inkscape:cy="199.15254"
     inkscape:window-width="1696"
     inkscape:window-height="874"
     inkscape:window-x="2151"
     inkscape:window-y="178"
     inkscape:window-maximized="0"
     inkscape:current-layer="g7" />
  <g
     transform="translate(0.000000,300.000000) scale(0.100000,-0.100000)"
     fill="#a63635"
     stroke="none"
     id="g7">
    <rect
       style="fill:#e4e1d4;fill-opacity:1;stroke:none;stroke-width:75.0003"
       id="rect7"
       width="3115.6777"
       height="3090.2542"
       x="-64.194893"
       y="-3038.771"
       transform="scale(1,-1)" />
    <path
       d="M1387 2434 c-135 -30 -230 -78 -314 -157 -129 -122 -171 -248 -143 -437 7 -52 6 -67 -5 -80 -19 -21 -19 -77 1 -181 17 -94 35 -129 64 -129 11 0 20 -4 20 -10 0 -6 -45 -10 -115 -10 l-115 0 0 -258 c0 -251 -1 -259 -21 -278 -63 -56 -139 -203 -139 -267 0 -44 11 -57 56 -67 51 -12 1597 -12 1648 0 45 10 56 23 56 67 0 64 -76 211 -139 267 -20 19 -21 27 -21 278 l0 258 -120 0 c-73 0 -120 4 -120 10 0 6 16 10 35 10 33 0 35 2 51 57 23 78 24 231 2 247 -14 11 -15 24 -5 128 12 135 4 186 -44 288 -60 128 -147 202 -289 248 -97 31 -246 38 -343 16z m267 -29 c159 -30 271 -110 333 -236 51 -103 56 -142 43 -324 -12 -162 -20 -205 -41 -205 -8 0 -10 33 -8 112 l4 113 -58 7 c-31 4 -97 21 -145 39 -137 49 -149 49 -121 -3 10 -18 8 -19 -13 -13 -12 3 -61 24 -106 46 -46 21 -88 39 -94 39 -6 0 -7 -13 -3 -30 l7 -31 -102 52 c-74 37 -105 48 -113 40 -8 -8 -8 -14 1 -23 29 -29 7 -26 -58 8 -42 22 -75 33 -80 28 -4 -5 -27 -44 -49 -87 l-41 -78 0 -115 c0 -74 -4 -113 -10 -109 -5 3 -10 28 -10 54 0 26 -4 51 -9 56 -15 16 -34 183 -28 248 15 165 167 327 365 392 112 36 219 43 336 20z m-471 -445 c37 -16 78 -30 92 -30 22 0 25 3 19 22 -6 21 -6 21 37 -4 105 -60 209 -81 169 -33 -17 20 -8 19 34 -6 52 -30 158 -61 170 -49 7 7 6 17 -2 30 -18 30 -16 30 41 3 28 -14 88 -33 133 -42 l81 -16 -5 -100 c-4 -93 -3 -101 18 -120 l22 -20 24 28 c17 19 24 40 24 68 0 23 5 39 11 39 14 0 7 -123 -12 -208 -10 -47 -14 -53 -32 -48 -25 6 -57 -10 -57 -29 0 -13 -62 -15 -453 -15 l-452 0 -10 23 c-6 12 -20 23 -32 25 -23 3 -28 15 -52 122 -13 58 -14 140 -1 140 6 0 10 -23 10 -52 0 -55 19 -88 50 -88 26 0 30 20 30 141 0 107 1 112 36 180 20 38 37 69 39 69 1 0 32 -13 68 -30z m1007 -970 l0 -410 -690 0 -690 0 0 410 0 410 690 0 690 0 0 -410z m-1410 -266 l0 -147 -55 6 c-30 3 -59 8 -65 12 -20 12 -9 75 24 138 31 60 83 137 92 137 2 0 4 -66 4 -146z m1535 12 c34 -67 45 -128 25 -141 -6 -4 -35 -9 -65 -12 l-55 -6 0 149 1 149 29 -35 c16 -19 45 -66 65 -104z"
       id="path2" />
    <path
       d="M1341 1077 c-39 -47 -15 -127 38 -127 33 0 60 25 44 41 -7 7 -14 5 -23 -6 -29 -35 -60 4 -46 60 7 27 33 34 42 10 7 -18 34 -20 34 -2 0 34 -66 51 -89 24z"
       id="path3" />
    <path
       d="M1485 1078 c-38 -103 -43 -128 -29 -128 8 0 17 7 20 15 4 8 17 15 30 15 15 0 24 -6 24 -15 0 -8 7 -15 16 -15 9 0 14 6 11 13 -2 6 -13 38 -23 70 -17 54 -39 74 -49 45z"
       id="path4" />
    <path
       d="M1633 1073 c-3 -10 -16 -44 -29 -76 -19 -48 -20 -58 -8 -55 22 4 77 148 58 148 -8 0 -17 -8 -21 -17z"
       id="path5" />
    <path
       d="M1253 1039 c-24 -10 -43 -24 -43 -31 0 -7 20 -20 45 -29 37 -14 45 -14 45 -3 0 8 -11 16 -25 20 -30 7 -33 24 -5 24 18 0 39 25 29 34 -2 2 -23 -5 -46 -15z"
       id="path6" />
    <path
       d="M1702 1042 c2 -9 13 -18 26 -20 29 -4 28 -18 -3 -26 -14 -4 -25 -12 -25 -20 0 -11 8 -10 45 3 56 20 55 38 -3 62 -41 18 -43 18 -40 1z"
       id="path7" />
  </g>
</svg>
